<svg width="64" height="62" viewBox="0 0 64 62" fill="none" xmlns="http://www.w3.org/2000/svg">
<g opacity="0.5">
<path fill-rule="evenodd" clip-rule="evenodd" d="M7 37.8332V45.5833C7 48.425 9.37211 50.75 12.2714 50.75H51.8066C54.7058 50.75 57.078 48.425 57.078 45.5833L57.078 37.8332H41.2639C39.0235 37.8332 37.3103 39.5123 37.3103 41.7082C37.3103 43.904 39.0235 45.5832 41.2639 45.5832H43.8995V48.1665H41.2639C37.5739 48.1665 34.6747 45.3248 34.6747 41.7082C34.6747 38.0915 37.5739 35.2498 41.2639 35.2498H45.2174V27.4998H41.2639C38.3646 27.4998 35.9925 25.1748 35.9925 22.3332C35.9925 19.4915 38.3646 17.1665 41.2639 17.1665H42.5817V19.7498H41.2639C39.8142 19.7498 38.6282 20.9123 38.6282 22.3332C38.6282 23.754 39.8142 24.9165 41.2639 24.9165H57.078L57.078 17.1667C57.078 14.325 54.7058 12 51.8066 12H12.2714C9.37211 12 7 14.325 7 17.1667V24.9165H22.8141C24.2637 24.9165 25.4498 23.754 25.4498 22.3332C25.4498 20.9123 24.2637 19.7498 22.8141 19.7498H18.8606V17.1665H22.8141C25.7133 17.1665 28.0855 19.4915 28.0855 22.3332C28.0855 25.1748 25.7133 27.4998 22.8141 27.4998H18.8606V35.2498H22.8141C26.504 35.2498 29.4033 38.0915 29.4033 41.7082C29.4033 45.3248 26.504 48.1665 22.8141 48.1665H20.1784V45.5832H22.8141C25.0544 45.5832 26.7676 43.904 26.7676 41.7082C26.7676 39.5123 25.0544 37.8332 22.8141 37.8332H7ZM7 35.2498H16.2249V27.4998H7V35.2498ZM57.078 27.4998H47.8531V35.2498H57.078V27.4998Z" fill="#CBE6FF"/>
</g>
</svg>
