<svg width="173" height="169" viewBox="0 0 173 169" fill="none" xmlns="http://www.w3.org/2000/svg">
<g opacity="0.5">
<path d="M58.2544 167.386C58.0427 167.499 57.908 167.386 57.7346 167.386C49.843 165.611 42.1481 163.083 34.7603 159.836C27.732 156.746 20.9974 153.051 14.6359 148.794C11.054 146.391 7.594 143.811 4.25599 141.055C4.03158 140.874 3.88122 140.619 3.83234 140.338C3.29311 137.167 2.77316 133.901 2.42652 130.636C2.17617 127.918 1.92582 125.2 1.79102 122.369C1.80957 122.218 1.80957 122.066 1.79102 121.916V113.799C1.83096 113.645 1.83096 113.482 1.79102 113.328C1.9567 108.611 2.4133 103.909 3.15831 99.2467C4.05601 93.4966 5.38192 87.8189 7.12539 82.2588C7.12539 82.0891 7.12539 81.8813 7.33722 81.8438C7.54908 81.8059 7.54908 82.0513 7.60684 82.1646C7.81867 82.6365 8.03049 83.0515 8.24235 83.5047C11.187 89.5855 14.8798 95.2905 19.2385 100.492C20.2206 101.662 21.1643 102.795 22.2619 103.928C22.3835 104.043 22.475 104.186 22.5286 104.344C22.5822 104.501 22.5964 104.669 22.5701 104.834C22.1849 107.816 21.9346 110.779 21.7997 113.78C21.7997 116.121 21.665 118.518 21.7997 120.859C21.7997 123.954 22.0886 126.993 22.4353 130.089C22.4524 130.213 22.4999 130.33 22.5737 130.432C22.6475 130.534 22.7454 130.617 22.8589 130.674C26.1622 133.076 29.609 135.282 33.181 137.28C37.0663 139.485 41.1007 141.427 45.2555 143.094C45.4315 143.169 45.587 143.283 45.7105 143.427C45.8341 143.572 45.9222 143.742 45.9682 143.924C48.6127 151.854 52.4345 159.359 57.3109 166.197L58.2544 167.386Z" fill="white"/>
<path d="M137.02 34.0492C137.02 34.2567 136.673 34.1625 136.5 34.0492C133.186 33.7159 129.854 33.5898 126.524 33.6718C121.006 33.7795 115.511 34.4117 110.117 35.5593C109.927 35.6166 109.726 35.6278 109.532 35.5915C109.337 35.5552 109.154 35.4729 109 35.3515C103.209 31.0083 96.9667 27.2755 90.3772 24.2152C89.3181 23.7244 88.2012 23.3092 87.142 22.7618C86.9115 22.6503 86.658 22.5923 86.4006 22.5923C86.1436 22.5923 85.8897 22.6503 85.6592 22.7618C81.1516 24.7096 76.7774 26.9415 72.5642 29.4436C69.579 31.3312 66.6711 33.2186 63.8596 35.2948C63.7051 35.4307 63.5183 35.5261 63.3165 35.5724C63.1143 35.6184 62.9039 35.6141 62.704 35.5593C58.8992 34.7337 55.0369 34.1848 51.1493 33.9172C47.2146 33.6058 43.2603 33.6058 39.3252 33.9172C38.3047 33.9172 37.2455 33.9172 36.2247 34.1247C36.09 34.1247 35.878 34.1247 35.7818 34.1247C35.6854 34.1247 35.9166 33.8605 36.013 33.7848C46.7592 22.5508 59.5378 13.3669 73.7003 6.699C77.5856 4.87221 81.5714 3.25904 85.64 1.86694C85.8568 1.80451 86.0596 1.70201 86.2371 1.56494H86.5258C88.6057 2.3577 90.7431 3.15047 92.8423 3.98095C99.6741 6.71425 106.242 10.0434 112.466 13.9282C117.72 17.2177 122.733 20.8632 127.468 24.8381C129.085 26.2726 130.703 27.6882 132.244 29.1605C133.784 30.6327 135.267 32.1239 136.769 33.6152C136.885 33.7472 137.154 33.8414 137.02 34.0492Z" fill="white"/>
<path d="M130.818 67.7237C130.816 67.5231 130.756 67.3271 130.643 67.1594C130.53 66.992 130.37 66.8602 130.182 66.7798C127.286 65.101 124.282 63.6066 121.189 62.3066C110.172 57.538 98.2605 55.0756 86.2169 55.0771H82.3655C78.7641 55.2471 75.1757 55.6255 71.6196 56.2098C61.2068 57.9282 51.2058 61.5114 42.1168 66.7798C41.9374 66.8687 41.7889 67.0073 41.6896 67.1785C41.5899 67.3497 41.5446 67.5459 41.5583 67.7424C41.309 87.4597 48.1545 106.633 60.8932 121.895C64.2513 125.913 67.9773 129.622 72.0242 132.975C76.2055 136.485 80.7195 139.595 85.5046 142.262C85.6831 142.373 85.8903 142.431 86.1014 142.431C86.3127 142.431 86.52 142.373 86.6985 142.262C92.7914 138.916 98.4492 134.859 103.549 130.182C106.04 127.875 108.393 125.43 110.597 122.858C114.529 118.293 117.957 113.333 120.823 108.06C125.604 99.1836 128.741 89.5466 130.086 79.5962C130.375 77.3501 130.587 75.0849 130.683 72.8387C130.834 71.1381 130.879 69.4299 130.818 67.7237ZM106.052 90.4683C103.735 96.7788 100.392 102.681 96.154 107.947C93.288 111.503 90.0617 114.766 86.5251 117.686C86.466 117.745 86.3958 117.792 86.3179 117.824C86.2403 117.856 86.1569 117.872 86.0726 117.872C85.9883 117.872 85.905 117.856 85.8274 117.824C85.7498 117.792 85.6792 117.745 85.6202 117.686C82.634 115.19 79.8701 112.45 77.3585 109.495C70.1744 101.03 65.3686 90.8735 63.416 80.0303C63.416 79.5584 63.416 79.3509 63.8781 79.2185C68.2031 77.6909 72.6842 76.6278 77.2429 76.0475C80.0352 75.641 82.855 75.4454 85.678 75.4626C92.869 75.4279 100.02 76.5176 106.861 78.6902C107.401 78.8601 107.92 79.0676 108.479 79.2185C109.037 79.3696 108.98 79.5584 108.903 79.9737C108.283 83.5502 107.329 87.0632 106.052 90.4683Z" fill="white"/>
<path d="M171.009 119.14C170.955 124.102 170.602 129.056 169.95 133.976C169.68 135.864 169.353 137.865 169.006 139.828C168.98 140.118 168.89 140.399 168.744 140.653C168.598 140.907 168.398 141.127 168.159 141.3C164.251 144.554 160.141 147.567 155.853 150.322C147.701 155.559 138.957 159.853 129.798 163.12C125.091 164.79 120.288 166.183 115.412 167.291C115.143 167.291 114.777 167.555 114.603 167.291C114.43 167.027 114.815 166.819 114.989 166.574C120.06 159.596 124.014 151.901 126.716 143.754C126.766 143.572 126.86 143.404 126.991 143.265C127.122 143.127 127.286 143.023 127.467 142.961C135.315 139.729 142.748 135.605 149.614 130.673C149.806 130.54 149.963 130.365 150.074 130.162C150.184 129.959 150.244 129.733 150.25 129.503C150.704 125.391 150.929 121.257 150.923 117.121C150.899 113.018 150.616 108.921 150.076 104.852C150.03 104.659 150.034 104.457 150.088 104.266C150.142 104.075 150.244 103.9 150.384 103.757C154.7 99.1126 158.472 94.0098 161.631 88.5439C162.825 86.5052 163.942 84.3724 164.962 82.2017C165.029 81.9838 165.163 81.7923 165.348 81.6543C165.598 82.4849 165.848 83.2776 166.118 84.127C167.745 89.7747 168.967 95.5267 169.777 101.341C170.162 104.097 170.47 106.89 170.624 109.703C170.932 112.931 171.048 115.969 171.009 119.14Z" fill="white"/>
</g>
</svg>
