<svg width="125" height="125" viewBox="0 0 125 125" fill="none" xmlns="http://www.w3.org/2000/svg">
<path d="M62.7742 0.625977L63.5077 0.669489L63.8744 0.719219L64.2536 0.800028L64.9436 1.01137C65.42 1.18747 65.873 1.42128 66.2925 1.70758L66.9389 2.2173L68.524 3.57241C81.0638 13.9879 96.9121 19.5807 113.212 19.3426L115.337 19.2805C116.727 19.2171 118.098 19.6218 119.231 20.4298C120.364 21.2379 121.192 22.4026 121.585 23.7374C124.639 34.1281 125.574 45.0268 124.333 55.7859C123.093 66.5449 119.702 76.9448 114.362 86.3676C109.023 95.7903 101.844 104.044 93.252 110.637C84.66 117.231 74.8302 122.03 64.3468 124.749C63.3236 125.014 62.2496 125.014 61.2263 124.749C50.7424 122.03 40.912 117.232 32.3192 110.639C23.7265 104.045 16.5468 95.7922 11.2068 86.3694C5.86682 76.9465 2.47552 66.5464 1.23444 55.787C-0.00663774 45.0276 0.927826 34.1285 3.9823 23.7374C4.3746 22.4026 5.20339 21.2379 6.33601 20.4298C7.46863 19.6218 8.8396 19.2171 10.2295 19.2805C27.2458 20.0583 43.9398 14.4567 57.0429 3.57241L58.6777 2.17379L59.2745 1.70758C59.694 1.42128 60.147 1.18747 60.6234 1.01137L61.3196 0.800028C61.5633 0.741644 61.8103 0.698051 62.0593 0.669489L62.7742 0.625977ZM62.7866 44.1387C59.6501 44.1377 56.6291 45.3222 54.3293 47.4549C52.0294 49.5876 50.6207 52.5108 50.3855 55.6384L50.3544 56.5709L50.3855 57.5033C50.5387 59.5211 51.1822 61.4709 52.2601 63.1836C53.3379 64.8962 54.8176 66.3199 56.5705 67.3309V78.3272L56.614 79.0545C56.8011 80.6277 57.5819 82.0702 58.7969 83.0871C60.0118 84.104 61.5692 84.6186 63.1509 84.5257C64.7325 84.4329 66.219 83.7396 67.3066 82.5875C68.3943 81.4355 69.0009 79.9116 69.0027 78.3272L69.0089 67.3371C71.3793 65.9684 73.2317 63.8557 74.2788 61.3267C75.3259 58.7977 75.5091 55.9939 74.8 53.3501C74.0909 50.7064 72.5291 48.3706 70.357 46.705C68.1849 45.0395 65.5238 44.1374 62.7866 44.1387Z" fill="#ACCAE5"/>
</svg>
